<svg xmlns="http://www.w3.org/2000/svg" viewBox="0 0 298.15 199.25"><g id="Layer_2" data-name="Layer 2"><g id="Layer_1-2" data-name="Layer 1"><rect width="298.15" height="199.25" style="fill:#fff"/><rect x="34.13" y="23.08" width="251" height="167" style="fill:#fff"/><path d="M284.63,23.58v166h-250v-166h250m1-1h-252v168h252v-168Z"/><path d="M9.39,19.57A6,6,0,0,1,6.2,18.5a6.66,6.66,0,0,1-2.07-2.58,7.41,7.41,0,0,1-.78-3.24,7.42,7.42,0,0,1,.78-3.25A6.66,6.66,0,0,1,6.2,6.85,6,6,0,0,1,9.39,5.78V6.84a4.39,4.39,0,0,0-2.46,1A5.64,5.64,0,0,0,5.31,9.92a6.53,6.53,0,0,0-.59,2.75,6.61,6.61,0,0,0,.59,2.76,5.61,5.61,0,0,0,1.62,2.11,4.55,4.55,0,0,0,2.46,1Z"/><path d="M14.66,6.1a3.09,3.09,0,0,1,2.77,1.52,7.7,7.7,0,0,1,.95,4.1,7.7,7.7,0,0,1-.95,4.1,3.07,3.07,0,0,1-2.77,1.52,3,3,0,0,1-2.75-1.52,7.61,7.61,0,0,1-1-4.1,7.61,7.61,0,0,1,1-4.1A3.06,3.06,0,0,1,14.66,6.1ZM12.59,14l3.67-5.75a2.12,2.12,0,0,0-.76-.86,1.7,1.7,0,0,0-.84-.22,1.86,1.86,0,0,0-1.73,1.27,7.48,7.48,0,0,0-.6,3.21q0,.45,0,1A8.37,8.37,0,0,0,12.59,14ZM16.71,9.5l-3.63,5.79a2.25,2.25,0,0,0,.67.75,1.59,1.59,0,0,0,.86.24,1.91,1.91,0,0,0,1.84-1.45A9.18,9.18,0,0,0,17,11.61,7.78,7.78,0,0,0,16.71,9.5Z"/><path d="M21.77,20v-.85a1.66,1.66,0,0,0,.74-.37,1.6,1.6,0,0,0,.41-.62,2.15,2.15,0,0,0,.16-.89,1.15,1.15,0,0,1-.94-.36,1.19,1.19,0,0,1-.3-.77A1.13,1.13,0,0,1,23,15a1.26,1.26,0,0,1,1,.49,2.08,2.08,0,0,1,.41,1.36A3.31,3.31,0,0,1,24,18.28a3.55,3.55,0,0,1-.9,1.14A2.61,2.61,0,0,1,21.77,20Z"/><path d="M39.87,6.1a3.07,3.07,0,0,1,2.76,1.52,7.7,7.7,0,0,1,.95,4.1,7.7,7.7,0,0,1-.95,4.1,3.27,3.27,0,0,1-5.52,0,7.61,7.61,0,0,1-1-4.1,7.61,7.61,0,0,1,1-4.1A3.06,3.06,0,0,1,39.87,6.1ZM37.8,14l3.66-5.75a2,2,0,0,0-.75-.86,1.74,1.74,0,0,0-.85-.22,1.87,1.87,0,0,0-1.73,1.27,7.48,7.48,0,0,0-.59,3.21c0,.3,0,.62,0,1A8.6,8.6,0,0,0,37.8,14ZM41.92,9.5l-3.64,5.79A2.27,2.27,0,0,0,39,16a1.56,1.56,0,0,0,.85.24,1.9,1.9,0,0,0,1.84-1.45,9,9,0,0,0,.55-3.22A7.78,7.78,0,0,0,41.92,9.5Z"/><path d="M45.14,5.78a6,6,0,0,1,3.2,1.07,6.84,6.84,0,0,1,2.07,2.58,7.42,7.42,0,0,1,.78,3.25,7.41,7.41,0,0,1-.78,3.24,6.84,6.84,0,0,1-2.07,2.58,6,6,0,0,1-3.2,1.07V18.51a4.49,4.49,0,0,0,2.46-1,5.61,5.61,0,0,0,1.62-2.11,6.46,6.46,0,0,0,.59-2.76,6.38,6.38,0,0,0-.59-2.75A5.64,5.64,0,0,0,47.6,7.8a4.33,4.33,0,0,0-2.46-1Z"/><line x1="279.13" y1="13.08" x2="59.13" y2="13.08" style="fill:none;stroke:#f90836;stroke-miterlimit:10;stroke-width:1.5px"/><polyline points="275.43 10.92 279.13 13.08 275.43 15.5" style="fill:none;stroke:#f90836;stroke-miterlimit:10;stroke-width:1.5px"/><line x1="25.09" y1="181.83" x2="25.09" y2="23.33" style="fill:none;stroke:#f90836;stroke-miterlimit:10;stroke-width:1.5px"/><polyline points="27.24 179.16 25.09 181.83 22.67 179.16" style="fill:none;stroke:#f90836;stroke-miterlimit:10;stroke-width:1.5px"/></g></g></svg>