<svg xmlns="http://www.w3.org/2000/svg" viewBox="0 0 379.71 78.77"><title>frame-rate</title><g id="Layer_2" data-name="Layer 2"><g id="Layer_2-2" data-name="Layer 2"><line x1="11.71" y1="36.1" x2="367" y2="36.1" style="fill:none;stroke:#000;stroke-linecap:round;stroke-miterlimit:10;stroke-width:4px"/><polygon points="379.71 36.09 361.8 43.41 366.05 36.09 361.8 28.78 379.71 36.09"/><line x1="19.71" y1="18.1" x2="19.71" y2="44.1" style="fill:none;stroke:#000;stroke-linecap:round;stroke-miterlimit:10;stroke-width:4px"/><line x1="69.71" y1="18.1" x2="69.71" y2="44.1" style="fill:none;stroke:#000;stroke-linecap:round;stroke-miterlimit:10;stroke-width:4px"/><path d="M6.12,10a.79.79,0,0,0-.35-.69,2.7,2.7,0,0,0-.87-.4L3.78,8.65a6.11,6.11,0,0,1-1.12-.33,2.44,2.44,0,0,1-.87-.57,1.38,1.38,0,0,1-.35-1,1.73,1.73,0,0,1,.23-.91,2.15,2.15,0,0,1,.61-.63,2.9,2.9,0,0,1,.88-.36,4.57,4.57,0,0,1,1-.12A5,5,0,0,1,5.9,5,5.28,5.28,0,0,1,7,5.49l-.45.88a10.34,10.34,0,0,0-1-.48,3.26,3.26,0,0,0-1.34-.23,3.08,3.08,0,0,0-.61.06,1.82,1.82,0,0,0-.54.19,1,1,0,0,0-.4.33.86.86,0,0,0-.14.49.59.59,0,0,0,.35.56,3.68,3.68,0,0,0,.86.33c.35.09.72.18,1.13.26A4.87,4.87,0,0,1,6,8.22a2.7,2.7,0,0,1,.87.6,1.45,1.45,0,0,1,.34,1,2,2,0,0,1-.76,1.6,3.53,3.53,0,0,1-2.29.63A4.6,4.6,0,0,1,3.26,12a5.15,5.15,0,0,1-.84-.22,4.23,4.23,0,0,1-.71-.32,2.56,2.56,0,0,1-.53-.35l.55-.91a3.75,3.75,0,0,0,.45.34,4.5,4.5,0,0,0,.62.32,4.91,4.91,0,0,0,.71.22,3.44,3.44,0,0,0,.78.08,3.8,3.8,0,0,0,.7-.06,1.89,1.89,0,0,0,.58-.2,1,1,0,0,0,.4-.35A.86.86,0,0,0,6.12,10Z" transform="translate(-1.18 -2.65)"/><path d="M15.81,11a3.52,3.52,0,0,1-.6.42,4.25,4.25,0,0,1-.75.33,4.6,4.6,0,0,1-.85.22,5.24,5.24,0,0,1-.88.08,4,4,0,0,1-1.49-.26,2.85,2.85,0,0,1-1.08-.74,3.21,3.21,0,0,1-.65-1.16A4.74,4.74,0,0,1,9.28,8.4a4.5,4.5,0,0,1,.25-1.57,3.09,3.09,0,0,1,.7-1.15A3.22,3.22,0,0,1,11.35,5a4,4,0,0,1,1.47-.25A4.23,4.23,0,0,1,14,4.89a2.2,2.2,0,0,1,1,.58,2.77,2.77,0,0,1,.68,1.17,5.61,5.61,0,0,1,.17,1.94H10.44a2.43,2.43,0,0,0,.68,1.88,2.56,2.56,0,0,0,1.81.63,3.2,3.2,0,0,0,.75-.09,7.16,7.16,0,0,0,.7-.22,4.17,4.17,0,0,0,.6-.28,2.5,2.5,0,0,0,.39-.28Zm-3-5.36a4,4,0,0,0-.87.09,2.12,2.12,0,0,0-.73.33,1.94,1.94,0,0,0-.52.61,2.33,2.33,0,0,0-.25.91h4.34a2.17,2.17,0,0,0-.6-1.43A1.87,1.87,0,0,0,12.86,5.66Z" transform="translate(-1.18 -2.65)"/><path d="M17.23,4.9H18.9V3.51L20,3.21V4.9h3.73v.94H20v3.3a2,2,0,0,0,.49,1.51,1.91,1.91,0,0,0,1.42.49A2.47,2.47,0,0,0,23,10.91a6.84,6.84,0,0,0,.85-.52l.36.82a3.65,3.65,0,0,1-1.17.63,4.15,4.15,0,0,1-1.39.24,3.32,3.32,0,0,1-1.06-.16,2.36,2.36,0,0,1-.87-.5,2.28,2.28,0,0,1-.61-.86,3.14,3.14,0,0,1-.22-1.25V5.84H17.23Z" transform="translate(-1.18 -2.65)"/><path d="M30.27,4.9h2V9.67A11.14,11.14,0,0,0,32.35,11h.94v.91H31.42l-.05-1.19h-.05a2.93,2.93,0,0,1-1,1,2.68,2.68,0,0,1-1.45.38,3.46,3.46,0,0,1-1.09-.15,1.58,1.58,0,0,1-.75-.51,2.29,2.29,0,0,1-.43-1,6.61,6.61,0,0,1-.14-1.52V5.84h-.94V4.9h2V8.69a10.29,10.29,0,0,0,.05,1,2.28,2.28,0,0,0,.2.77,1.12,1.12,0,0,0,.46.48,1.6,1.6,0,0,0,.79.16,1.82,1.82,0,0,0,1.26-.48,2.87,2.87,0,0,0,.81-1.19V5.84h-.89Z" transform="translate(-1.18 -2.65)"/><path d="M34.94,7.35V7c0-.13,0-.27,0-.42s0-.29,0-.43a2.84,2.84,0,0,0-.05-.36h-.94V4.9h1.87l.14,1H36a3.15,3.15,0,0,1,1-.82,3.39,3.39,0,0,1,3.68.5,4,4,0,0,1,.76,2.7,4.65,4.65,0,0,1-.26,1.59,3.47,3.47,0,0,1-.74,1.2,3.37,3.37,0,0,1-1.15.75,3.9,3.9,0,0,1-1.48.27l-.53,0L36.78,12a2.49,2.49,0,0,1-.37-.09L36,11.76V14.7H34.94Zm3.22-1.58a2.09,2.09,0,0,0-.79.15,2.36,2.36,0,0,0-.66.41,2.06,2.06,0,0,0-.46.56A1.48,1.48,0,0,0,36,7.5v3.18a2.74,2.74,0,0,0,.69.33,3.56,3.56,0,0,0,1,.12,2.3,2.3,0,0,0,1.79-.73,3.08,3.08,0,0,0,.67-2.15,3,3,0,0,0-.47-1.83A1.77,1.77,0,0,0,38.16,5.77Z" transform="translate(-1.18 -2.65)"/><path d="M56.93,2.65h2.28v7.4c0,.08,0,.19,0,.32s0,.25,0,.39,0,.28.05.42,0,.25,0,.35h.94v.91H58.43l-.14-1.07h-.06a2.51,2.51,0,0,1-.91.89,3.29,3.29,0,0,1-3.73-.54A4.21,4.21,0,0,1,52.84,9a4.4,4.4,0,0,1,.25-1.56,3.17,3.17,0,0,1,.72-1.14,3.2,3.2,0,0,1,1.12-.69,4.28,4.28,0,0,1,1.47-.24l.52,0,.43,0a2.21,2.21,0,0,1,.37.08l.38.1v-2H56.93Zm-.84,9a1.88,1.88,0,0,0,1.34-.44,2.31,2.31,0,0,0,.67-1.32V6.66a2.17,2.17,0,0,0-.69-.31,4.53,4.53,0,0,0-1-.09,2.35,2.35,0,0,0-1.76.65A2.86,2.86,0,0,0,54,9,5.17,5.17,0,0,0,54.11,10a2.29,2.29,0,0,0,.35.86,1.68,1.68,0,0,0,.64.57A2.13,2.13,0,0,0,56.09,11.67Z" transform="translate(-1.18 -2.65)"/><path d="M61.38,12.44v-.93h1.89V6.38H61.38V5.44H64l.22.91h.07a5.49,5.49,0,0,1,1.07-.74,3,3,0,0,1,1.4-.31,1.42,1.42,0,0,1,.76.19A1.24,1.24,0,0,1,68,6a2.71,2.71,0,0,1,.21.85A9.35,9.35,0,0,1,68.24,8l-1,0a3.52,3.52,0,0,0-.18-1.31.62.62,0,0,0-.63-.42,2.47,2.47,0,0,0-.79.13,2.42,2.42,0,0,0-.6.31,3.54,3.54,0,0,0-.45.36,1.57,1.57,0,0,0-.26.31v4.12H67v.93Z" transform="translate(-1.18 -2.65)"/><path d="M70.37,6a4.4,4.4,0,0,1,1.36-.5,6.84,6.84,0,0,1,1.48-.16,2.62,2.62,0,0,1,1.17.23,1.87,1.87,0,0,1,.71.58,2,2,0,0,1,.35.81,4.7,4.7,0,0,1,.09.92c0,.35,0,.73,0,1.13s0,.8-.05,1.2a9.37,9.37,0,0,0,.09,1.33h.94v.91H74.64l-.13-1h-.07a3.27,3.27,0,0,1-.25.32,2.12,2.12,0,0,1-.44.38,2.79,2.79,0,0,1-.67.33,2.84,2.84,0,0,1-.93.14A2.41,2.41,0,0,1,70.51,12a1.86,1.86,0,0,1-.6-1.46,2.13,2.13,0,0,1,.31-1.19,2,2,0,0,1,.91-.72,4.14,4.14,0,0,1,1.42-.3,9.71,9.71,0,0,1,1.88.11,5.62,5.62,0,0,0,0-1.07,1.44,1.44,0,0,0-.23-.68.89.89,0,0,0-.49-.35A2.48,2.48,0,0,0,73,6.27a4.07,4.07,0,0,0-1.21.18c-.38.11-.72.23-1,.35Zm2.07,5.64a2.19,2.19,0,0,0,.73-.12,2.55,2.55,0,0,0,.59-.32,3.39,3.39,0,0,0,.42-.43,2.54,2.54,0,0,0,.25-.44v-1a7.48,7.48,0,0,0-1.35-.13A4.09,4.09,0,0,0,72,9.34a1.48,1.48,0,0,0-.7.42,1,1,0,0,0-.25.72,1.16,1.16,0,0,0,.31.81A1.39,1.39,0,0,0,72.44,11.63Z" transform="translate(-1.18 -2.65)"/><path d="M82,7l1.4,3.9h.1l1-5.44h1l-1.38,7H82.9L81.55,8.58h0l-1.4,3.86H78.87l-1.47-7h1.07l1.14,5.46h.08L81.05,7Z" transform="translate(-1.18 -2.65)"/><line x1="112.71" y1="19.1" x2="112.71" y2="45.1" style="fill:none;stroke:#000;stroke-linecap:round;stroke-miterlimit:10;stroke-width:4px"/><path d="M99.93,3.65h2.28v7.4c0,.08,0,.19,0,.32s0,.25,0,.39,0,.28,0,.42,0,.25,0,.35h.94v.91h-1.87l-.14-1.07h-.06a2.51,2.51,0,0,1-.91.89,3.29,3.29,0,0,1-3.73-.54A4.21,4.21,0,0,1,95.84,10a4.4,4.4,0,0,1,.25-1.56,3.17,3.17,0,0,1,.72-1.14,3.2,3.2,0,0,1,1.12-.69,4.28,4.28,0,0,1,1.47-.24l.52,0,.43,0a2.21,2.21,0,0,1,.37.08l.38.1v-2H99.93Zm-.84,9a1.88,1.88,0,0,0,1.34-.44,2.31,2.31,0,0,0,.67-1.32V7.66a2.17,2.17,0,0,0-.69-.31,4.53,4.53,0,0,0-1-.09,2.35,2.35,0,0,0-1.76.65A2.86,2.86,0,0,0,97,10,5.17,5.17,0,0,0,97.11,11a2.29,2.29,0,0,0,.35.86,1.68,1.68,0,0,0,.64.57A2.13,2.13,0,0,0,99.09,12.67Z" transform="translate(-1.18 -2.65)"/><path d="M104.38,13.44v-.93h1.89V7.38h-1.89V6.44H107l.22.91h.07a5.49,5.49,0,0,1,1.07-.74,3,3,0,0,1,1.4-.31,1.42,1.42,0,0,1,.76.19A1.24,1.24,0,0,1,111,7a2.71,2.71,0,0,1,.21.85A9.35,9.35,0,0,1,111.24,9l-1,0a3.52,3.52,0,0,0-.18-1.31.62.62,0,0,0-.63-.42,2.47,2.47,0,0,0-.79.13,2.42,2.42,0,0,0-.6.31,3.54,3.54,0,0,0-.45.36,1.57,1.57,0,0,0-.26.31v4.12H110v.93Z" transform="translate(-1.18 -2.65)"/><path d="M113.37,7a4.4,4.4,0,0,1,1.36-.5,6.84,6.84,0,0,1,1.48-.16,2.62,2.62,0,0,1,1.17.23,1.87,1.87,0,0,1,.71.58,2,2,0,0,1,.35.81,4.7,4.7,0,0,1,.09.92c0,.35,0,.73,0,1.13s0,.8-.05,1.2a9.37,9.37,0,0,0,.09,1.33h.94v.91h-1.85l-.13-1h-.07a3.27,3.27,0,0,1-.25.32,2.12,2.12,0,0,1-.44.38,2.79,2.79,0,0,1-.67.33,2.84,2.84,0,0,1-.93.14,2.41,2.41,0,0,1-1.64-.53,1.86,1.86,0,0,1-.6-1.46,2.13,2.13,0,0,1,.31-1.19,2,2,0,0,1,.91-.72,4.14,4.14,0,0,1,1.42-.3,9.71,9.71,0,0,1,1.88.11,5.62,5.62,0,0,0,0-1.07,1.44,1.44,0,0,0-.23-.68.89.89,0,0,0-.49-.35,2.48,2.48,0,0,0-.78-.11,4.07,4.07,0,0,0-1.21.18c-.38.11-.72.23-1,.35Zm2.07,5.64a2.19,2.19,0,0,0,.73-.12,2.55,2.55,0,0,0,.59-.32,3.39,3.39,0,0,0,.42-.43,2.54,2.54,0,0,0,.25-.44v-1a7.48,7.48,0,0,0-1.35-.13,4.09,4.09,0,0,0-1.06.13,1.48,1.48,0,0,0-.7.42,1,1,0,0,0-.25.72,1.16,1.16,0,0,0,.31.81A1.39,1.39,0,0,0,115.44,12.63Z" transform="translate(-1.18 -2.65)"/><path d="M125,8l1.4,3.9h.1l1-5.44h1l-1.38,7H125.9l-1.35-3.86h0l-1.4,3.86h-1.24l-1.47-7h1.07l1.14,5.46h.08L124.05,8Z" transform="translate(-1.18 -2.65)"/><line x1="155.71" y1="19.1" x2="155.71" y2="45.1" style="fill:none;stroke:#000;stroke-linecap:round;stroke-miterlimit:10;stroke-width:4px"/><path d="M142.93,3.65h2.28v7.4c0,.08,0,.19,0,.32s0,.25,0,.39,0,.28.05.42,0,.25.05.35h.94v.91h-1.87l-.14-1.07h-.06a2.51,2.51,0,0,1-.91.89,3.29,3.29,0,0,1-3.73-.54,4.21,4.21,0,0,1-.75-2.76,4.4,4.4,0,0,1,.25-1.56,3.17,3.17,0,0,1,.72-1.14,3.2,3.2,0,0,1,1.12-.69,4.28,4.28,0,0,1,1.47-.24l.52,0,.43,0a2.21,2.21,0,0,1,.37.08l.38.1v-2h-1.17Zm-.84,9a1.88,1.88,0,0,0,1.34-.44,2.31,2.31,0,0,0,.67-1.32V7.66a2.17,2.17,0,0,0-.69-.31,4.53,4.53,0,0,0-1-.09,2.35,2.35,0,0,0-1.76.65A2.86,2.86,0,0,0,140,10a5.17,5.17,0,0,0,.11,1.07,2.29,2.29,0,0,0,.35.86,1.68,1.68,0,0,0,.64.57A2.13,2.13,0,0,0,142.09,12.67Z" transform="translate(-1.18 -2.65)"/><path d="M147.38,13.44v-.93h1.89V7.38h-1.89V6.44H150l.22.91h.07a5.49,5.49,0,0,1,1.07-.74,3,3,0,0,1,1.4-.31,1.42,1.42,0,0,1,.76.19A1.24,1.24,0,0,1,154,7a2.71,2.71,0,0,1,.21.85A9.35,9.35,0,0,1,154.24,9l-1,0a3.52,3.52,0,0,0-.18-1.31.62.62,0,0,0-.63-.42,2.47,2.47,0,0,0-.79.13,2.42,2.42,0,0,0-.6.31,3.54,3.54,0,0,0-.45.36,1.57,1.57,0,0,0-.26.31v4.12H153v.93Z" transform="translate(-1.18 -2.65)"/><path d="M156.37,7a4.4,4.4,0,0,1,1.36-.5,6.84,6.84,0,0,1,1.48-.16,2.62,2.62,0,0,1,1.17.23,1.87,1.87,0,0,1,.71.58,2,2,0,0,1,.35.81,4.7,4.7,0,0,1,.09.92c0,.35,0,.73,0,1.13s0,.8,0,1.2a9.37,9.37,0,0,0,.09,1.33h.94v.91h-1.85l-.13-1h-.07a3.27,3.27,0,0,1-.25.32,2.12,2.12,0,0,1-.44.38,2.79,2.79,0,0,1-.67.33,2.84,2.84,0,0,1-.93.14,2.41,2.41,0,0,1-1.64-.53,1.86,1.86,0,0,1-.6-1.46,2.13,2.13,0,0,1,.31-1.19,2,2,0,0,1,.91-.72,4.14,4.14,0,0,1,1.42-.3,9.71,9.71,0,0,1,1.88.11,5.62,5.62,0,0,0,0-1.07,1.44,1.44,0,0,0-.23-.68.89.89,0,0,0-.49-.35,2.48,2.48,0,0,0-.78-.11,4.07,4.07,0,0,0-1.21.18c-.38.11-.72.23-1,.35Zm2.07,5.64a2.19,2.19,0,0,0,.73-.12,2.55,2.55,0,0,0,.59-.32,3.39,3.39,0,0,0,.42-.43,2.54,2.54,0,0,0,.25-.44v-1a7.48,7.48,0,0,0-1.35-.13,4.09,4.09,0,0,0-1.06.13,1.48,1.48,0,0,0-.7.42,1,1,0,0,0-.25.72,1.16,1.16,0,0,0,.31.81A1.39,1.39,0,0,0,158.44,12.63Z" transform="translate(-1.18 -2.65)"/><path d="M168,8l1.4,3.9h.1l1-5.44h1l-1.38,7H168.9l-1.35-3.86h0l-1.4,3.86h-1.24l-1.47-7h1.07l1.14,5.46h.08L167.05,8Z" transform="translate(-1.18 -2.65)"/><line x1="198.71" y1="20.1" x2="198.71" y2="46.1" style="fill:none;stroke:#000;stroke-linecap:round;stroke-miterlimit:10;stroke-width:4px"/><path d="M185.93,4.65h2.28v7.4c0,.08,0,.19,0,.32s0,.25,0,.39,0,.28.05.42,0,.25.05.35h.94v.91h-1.87l-.14-1.07h-.06a2.51,2.51,0,0,1-.91.89,3.29,3.29,0,0,1-3.73-.54,4.21,4.21,0,0,1-.75-2.76,4.4,4.4,0,0,1,.25-1.56,3,3,0,0,1,1.84-1.83,4.28,4.28,0,0,1,1.47-.24l.52,0,.43,0a2.21,2.21,0,0,1,.37.08l.38.1v-2h-1.17Zm-.84,9a1.88,1.88,0,0,0,1.34-.44,2.31,2.31,0,0,0,.67-1.32V8.66a2.17,2.17,0,0,0-.69-.31,4.53,4.53,0,0,0-1-.09,2.35,2.35,0,0,0-1.76.65A2.86,2.86,0,0,0,183,11a5.17,5.17,0,0,0,.11,1.07,2.29,2.29,0,0,0,.35.86,1.68,1.68,0,0,0,.64.57A2.13,2.13,0,0,0,185.09,13.67Z" transform="translate(-1.18 -2.65)"/><path d="M190.38,14.44v-.93h1.89V8.38h-1.89V7.44H193l.22.91h.07a5.49,5.49,0,0,1,1.07-.74,3,3,0,0,1,1.4-.31,1.42,1.42,0,0,1,.76.19A1.24,1.24,0,0,1,197,8a2.71,2.71,0,0,1,.21.85,9.35,9.35,0,0,1,.06,1.12l-1,0a3.52,3.52,0,0,0-.18-1.31.62.62,0,0,0-.63-.42,2.47,2.47,0,0,0-.79.13,2.42,2.42,0,0,0-.6.31,3.54,3.54,0,0,0-.45.36,1.57,1.57,0,0,0-.26.31v4.12H196v.93Z" transform="translate(-1.18 -2.65)"/><path d="M199.37,8a4.4,4.4,0,0,1,1.36-.5,6.84,6.84,0,0,1,1.48-.16,2.62,2.62,0,0,1,1.17.23,1.87,1.87,0,0,1,.71.58,2,2,0,0,1,.35.81,4.7,4.7,0,0,1,.09.92c0,.35,0,.73,0,1.13s0,.8,0,1.2a9.37,9.37,0,0,0,.09,1.33h.94v.91h-1.85l-.13-1h-.07a3.27,3.27,0,0,1-.25.32,2.12,2.12,0,0,1-.44.38,2.79,2.79,0,0,1-.67.33,2.84,2.84,0,0,1-.93.14,2.41,2.41,0,0,1-1.64-.53,1.86,1.86,0,0,1-.6-1.46,2.13,2.13,0,0,1,.31-1.19,2,2,0,0,1,.91-.72,4.14,4.14,0,0,1,1.42-.3,9.71,9.71,0,0,1,1.88.11,5.62,5.62,0,0,0,0-1.07,1.44,1.44,0,0,0-.23-.68.89.89,0,0,0-.49-.35,2.48,2.48,0,0,0-.78-.11,4.07,4.07,0,0,0-1.21.18c-.38.11-.72.23-1,.35Zm2.07,5.64a2.19,2.19,0,0,0,.73-.12,2.55,2.55,0,0,0,.59-.32,3.39,3.39,0,0,0,.42-.43,2.54,2.54,0,0,0,.25-.44v-1a7.48,7.48,0,0,0-1.35-.13,4.09,4.09,0,0,0-1.06.13,1.48,1.48,0,0,0-.7.42,1,1,0,0,0-.25.72,1.16,1.16,0,0,0,.31.81A1.39,1.39,0,0,0,201.44,13.63Z" transform="translate(-1.18 -2.65)"/><path d="M211,9l1.4,3.9h.1l1-5.44h1l-1.38,7H211.9l-1.35-3.86h0l-1.4,3.86h-1.24l-1.47-7h1.07l1.14,5.46h.08L210.05,9Z" transform="translate(-1.18 -2.65)"/><line x1="306.71" y1="20.1" x2="306.71" y2="46.1" style="fill:none;stroke:#000;stroke-linecap:round;stroke-miterlimit:10;stroke-width:4px"/><path d="M293.93,4.65h2.28v7.4c0,.08,0,.19,0,.32s0,.25,0,.39,0,.28.05.42,0,.25.05.35h.94v.91h-1.87l-.14-1.07h-.06a2.51,2.51,0,0,1-.91.89,3.29,3.29,0,0,1-3.73-.54,4.21,4.21,0,0,1-.75-2.76,4.4,4.4,0,0,1,.25-1.56,3,3,0,0,1,1.84-1.83,4.28,4.28,0,0,1,1.47-.24l.52,0,.43,0a2.21,2.21,0,0,1,.37.08l.38.1v-2h-1.17Zm-.84,9a1.88,1.88,0,0,0,1.34-.44,2.31,2.31,0,0,0,.67-1.32V8.66a2.17,2.17,0,0,0-.69-.31,4.53,4.53,0,0,0-1-.09,2.35,2.35,0,0,0-1.76.65A2.86,2.86,0,0,0,291,11a5.17,5.17,0,0,0,.11,1.07,2.29,2.29,0,0,0,.35.86,1.68,1.68,0,0,0,.64.57A2.13,2.13,0,0,0,293.09,13.67Z" transform="translate(-1.18 -2.65)"/><path d="M298.38,14.44v-.93h1.89V8.38h-1.89V7.44H301l.22.91h.07a5.49,5.49,0,0,1,1.07-.74,3,3,0,0,1,1.4-.31,1.42,1.42,0,0,1,.76.19A1.24,1.24,0,0,1,305,8a2.71,2.71,0,0,1,.21.85,9.35,9.35,0,0,1,.06,1.12l-1,0a3.52,3.52,0,0,0-.18-1.31.62.62,0,0,0-.63-.42,2.47,2.47,0,0,0-.79.13,2.42,2.42,0,0,0-.6.31,3.54,3.54,0,0,0-.45.36,1.57,1.57,0,0,0-.26.31v4.12H304v.93Z" transform="translate(-1.18 -2.65)"/><path d="M307.37,8a4.4,4.4,0,0,1,1.36-.5,6.84,6.84,0,0,1,1.48-.16,2.62,2.62,0,0,1,1.17.23,1.87,1.87,0,0,1,.71.58,2,2,0,0,1,.35.81,4.7,4.7,0,0,1,.09.92c0,.35,0,.73,0,1.13s0,.8-.05,1.2a9.37,9.37,0,0,0,.09,1.33h.94v.91h-1.85l-.13-1h-.07a3.27,3.27,0,0,1-.25.32,2.12,2.12,0,0,1-.44.38,2.79,2.79,0,0,1-.67.33,2.84,2.84,0,0,1-.93.14,2.41,2.41,0,0,1-1.64-.53,1.86,1.86,0,0,1-.6-1.46,2.13,2.13,0,0,1,.31-1.19,2,2,0,0,1,.91-.72,4.14,4.14,0,0,1,1.42-.3,9.71,9.71,0,0,1,1.88.11,5.62,5.62,0,0,0,0-1.07,1.44,1.44,0,0,0-.23-.68.89.89,0,0,0-.49-.35,2.48,2.48,0,0,0-.78-.11,4.07,4.07,0,0,0-1.21.18c-.38.11-.72.23-1,.35Zm2.07,5.64a2.19,2.19,0,0,0,.73-.12,2.55,2.55,0,0,0,.59-.32,3.39,3.39,0,0,0,.42-.43,2.54,2.54,0,0,0,.25-.44v-1a7.48,7.48,0,0,0-1.35-.13,4.09,4.09,0,0,0-1.06.13,1.48,1.48,0,0,0-.7.42,1,1,0,0,0-.25.72,1.16,1.16,0,0,0,.31.81A1.39,1.39,0,0,0,309.44,13.63Z" transform="translate(-1.18 -2.65)"/><path d="M319,9l1.4,3.9h.1l1-5.44h1l-1.38,7H319.9l-1.35-3.86h0l-1.4,3.86h-1.24l-1.47-7h1.07l1.14,5.46h.08L318.05,9Z" transform="translate(-1.18 -2.65)"/><line x1="349.71" y1="21.1" x2="349.71" y2="47.1" style="fill:none;stroke:#000;stroke-linecap:round;stroke-miterlimit:10;stroke-width:4px"/><path d="M336.93,5.65h2.28v7.4c0,.08,0,.19,0,.32s0,.25,0,.39,0,.28.05.42,0,.25.05.35h.94v.91h-1.87l-.14-1.07h-.06a2.51,2.51,0,0,1-.91.89,3.29,3.29,0,0,1-3.73-.54,4.21,4.21,0,0,1-.75-2.76,4.4,4.4,0,0,1,.25-1.56,3,3,0,0,1,1.84-1.83,4.28,4.28,0,0,1,1.47-.24l.52,0,.43,0a2.21,2.21,0,0,1,.37.08l.38.1v-2h-1.17Zm-.84,9a1.88,1.88,0,0,0,1.34-.44,2.31,2.31,0,0,0,.67-1.32V9.66a2.17,2.17,0,0,0-.69-.31,4.53,4.53,0,0,0-1-.09,2.35,2.35,0,0,0-1.76.65A2.86,2.86,0,0,0,334,12a5.17,5.17,0,0,0,.11,1.07,2.29,2.29,0,0,0,.35.86,1.68,1.68,0,0,0,.64.57A2.13,2.13,0,0,0,336.09,14.67Z" transform="translate(-1.18 -2.65)"/><path d="M341.38,15.44v-.93h1.89V9.38h-1.89V8.44H344l.22.91h.07a5.49,5.49,0,0,1,1.07-.74,3,3,0,0,1,1.4-.31,1.42,1.42,0,0,1,.76.19A1.24,1.24,0,0,1,348,9a2.71,2.71,0,0,1,.21.85,9.35,9.35,0,0,1,.06,1.12l-1,0a3.52,3.52,0,0,0-.18-1.31.62.62,0,0,0-.63-.42,2.47,2.47,0,0,0-.79.13,2.42,2.42,0,0,0-.6.31,3.54,3.54,0,0,0-.45.36,1.57,1.57,0,0,0-.26.31v4.12H347v.93Z" transform="translate(-1.18 -2.65)"/><path d="M350.37,9a4.4,4.4,0,0,1,1.36-.5,6.84,6.84,0,0,1,1.48-.16,2.62,2.62,0,0,1,1.17.23,1.87,1.87,0,0,1,.71.58,2,2,0,0,1,.35.81,4.7,4.7,0,0,1,.09.92c0,.35,0,.73,0,1.13s0,.8-.05,1.2a9.37,9.37,0,0,0,.09,1.33h.94v.91h-1.85l-.13-1h-.07a3.27,3.27,0,0,1-.25.32,2.12,2.12,0,0,1-.44.38,2.79,2.79,0,0,1-.67.33,2.84,2.84,0,0,1-.93.14,2.41,2.41,0,0,1-1.64-.53,1.86,1.86,0,0,1-.6-1.46,2.13,2.13,0,0,1,.31-1.19,2,2,0,0,1,.91-.72,4.14,4.14,0,0,1,1.42-.3,9.71,9.71,0,0,1,1.88.11,5.62,5.62,0,0,0,0-1.07,1.44,1.44,0,0,0-.23-.68.89.89,0,0,0-.49-.35,2.48,2.48,0,0,0-.78-.11,4.07,4.07,0,0,0-1.21.18c-.38.11-.72.23-1,.35Zm2.07,5.64a2.19,2.19,0,0,0,.73-.12,2.55,2.55,0,0,0,.59-.32,3.39,3.39,0,0,0,.42-.43,2.54,2.54,0,0,0,.25-.44v-1a7.48,7.48,0,0,0-1.35-.13,4.09,4.09,0,0,0-1.06.13,1.48,1.48,0,0,0-.7.42,1,1,0,0,0-.25.72,1.16,1.16,0,0,0,.31.81A1.39,1.39,0,0,0,352.44,14.63Z" transform="translate(-1.18 -2.65)"/><path d="M362,10l1.4,3.9h.1l1-5.44h1l-1.38,7H362.9l-1.35-3.86h0l-1.4,3.86h-1.24l-1.47-7h1.07l1.14,5.46h.08L361.05,10Z" transform="translate(-1.18 -2.65)"/><path d="M90.66,65.2c0-3.36-2.06-3.84-3.6-3.89a28.41,28.41,0,0,0-3.89.38,27.53,27.53,0,0,1-3.93.39c-4.85,0-6.58-3-6.58-7v-1H75.3v.81c0,2.69,1.49,3.84,4.18,3.84a28.75,28.75,0,0,0,3.45-.33,23.17,23.17,0,0,1,3.7-.39c3.07,0,4.66,1.35,5.23,3.51H92c.57-2.16,2.11-3.51,5.18-3.51a22.54,22.54,0,0,1,3.65.39,29.1,29.1,0,0,0,3.41.33c2.59,0,4.08-1,4.13-3.84v-.81H111v1c0,4.08-1.87,7-6.29,7a30.3,30.3,0,0,1-4-.39,27.65,27.65,0,0,0-4-.38c-1.68,0-3.55.48-3.55,3.89Z" transform="translate(-1.18 -2.65)"/><path d="M71.09,78.31c0-1.4.7-2.11,1.67-2.11a4.46,4.46,0,0,1,2,.63,4.25,4.25,0,0,0,1.74.59c.5,0,.74-.41.75-1.18h.83c.07,1.56-.73,2.12-1.6,2.12a4.73,4.73,0,0,1-2-.62,4.31,4.31,0,0,0-1.68-.62c-.5,0-.81.35-.82,1.19Z" transform="translate(-1.18 -2.65)"/><path d="M82.06,73.3h0l-1.58.85-.24-.93,2-1.07h1v9.11H82.06Z" transform="translate(-1.18 -2.65)"/><path d="M91.76,73a4.54,4.54,0,0,0-.92.07,3.65,3.65,0,0,0-3.17,3.22h0a2.78,2.78,0,0,1,5,1.88,3.05,3.05,0,0,1-3,3.22c-1.93,0-3.21-1.51-3.21-3.88A5.65,5.65,0,0,1,88,73.43a4.94,4.94,0,0,1,2.91-1.35,7,7,0,0,1,.9-.07Zm-.35,5.25a1.84,1.84,0,0,0-1.88-2.08,2,2,0,0,0-1.78,1.12,1.26,1.26,0,0,0-.12.53c0,1.5.71,2.62,2,2.62C90.7,80.46,91.41,79.58,91.41,78.27Z" transform="translate(-1.18 -2.65)"/><path d="M94.14,76.31c0-.71,0-1.27-.06-1.83h1.08l.06,1.1h0a2.35,2.35,0,0,1,2.14-1.24,2,2,0,0,1,1.91,1.36h0a2.76,2.76,0,0,1,.78-.89,2.24,2.24,0,0,1,1.48-.47c.91,0,2.24.58,2.24,2.94v4h-1.2V77.43c0-1.31-.49-2.08-1.47-2.08a1.6,1.6,0,0,0-1.47,1.1,2,2,0,0,0-.1.62v4.19H98.38V77.19c0-1.07-.47-1.84-1.41-1.84a1.7,1.7,0,0,0-1.53,1.23,1.64,1.64,0,0,0-.1.6v4.08h-1.2Z" transform="translate(-1.18 -2.65)"/><path d="M105.65,80a3.49,3.49,0,0,0,1.63.48c.89,0,1.31-.44,1.31-1s-.35-.9-1.25-1.24c-1.23-.44-1.81-1.1-1.81-1.91a2.1,2.1,0,0,1,2.34-2,3.16,3.16,0,0,1,1.66.42l-.3.89a2.66,2.66,0,0,0-1.38-.4c-.73,0-1.13.42-1.13.92s.4.81,1.28,1.16c1.16.44,1.78,1,1.78,2,0,1.2-.94,2-2.52,2a3.88,3.88,0,0,1-1.91-.48Z" transform="translate(-1.18 -2.65)"/></g></g></svg>