<svg xmlns="http://www.w3.org/2000/svg" viewBox="0 0 261.08 181"><g id="Layer_2" data-name="Layer 2"><g id="Layer_2-2" data-name="Layer 2"><rect x="0.5" y="0.6" width="260.08" height="179.9" style="fill:#fff;stroke:#999;stroke-miterlimit:10"/><line x1="40.58" y1="0.6" x2="40.58" y2="180.49" style="fill:none;stroke:#999;stroke-miterlimit:10"/><line x1="20.58" y1="0.6" x2="20.58" y2="180.49" style="fill:none;stroke:#999;stroke-miterlimit:10"/><line x1="80.58" y1="0.6" x2="80.58" y2="180.49" style="fill:none;stroke:#999;stroke-miterlimit:10"/><line x1="60.58" y1="0.6" x2="60.58" y2="180.49" style="fill:none;stroke:#999;stroke-miterlimit:10"/><line x1="120.58" y1="0.61" x2="120.58" y2="180.5" style="fill:none;stroke:#999;stroke-miterlimit:10"/><line x1="100.58" y1="0.61" x2="100.58" y2="180.5" style="fill:none;stroke:#999;stroke-miterlimit:10"/><line x1="160.58" y1="0.61" x2="160.58" y2="180.5" style="fill:none;stroke:#999;stroke-miterlimit:10"/><line x1="140.58" y1="0.61" x2="140.58" y2="180.5" style="fill:none;stroke:#999;stroke-miterlimit:10"/><line x1="200.58" y1="0.61" x2="200.58" y2="180.5" style="fill:none;stroke:#999;stroke-miterlimit:10"/><line x1="180.58" y1="0.61" x2="180.58" y2="180.5" style="fill:none;stroke:#999;stroke-miterlimit:10"/><line x1="240.58" y1="0.61" x2="240.58" y2="180.5" style="fill:none;stroke:#999;stroke-miterlimit:10"/><line x1="220.58" y1="0.61" x2="220.58" y2="180.5" style="fill:none;stroke:#999;stroke-miterlimit:10"/><line x1="260.58" y1="20.5" x2="0.51" y2="20.5" style="fill:none;stroke:#999;stroke-miterlimit:10"/><line x1="260.58" y1="0.5" x2="0.51" y2="0.5" style="fill:none;stroke:#999;stroke-miterlimit:10"/><line x1="260.58" y1="60.5" x2="0.51" y2="60.5" style="fill:none;stroke:#999;stroke-miterlimit:10"/><line x1="260.58" y1="40.5" x2="0.51" y2="40.5" style="fill:none;stroke:#999;stroke-miterlimit:10"/><line x1="260.57" y1="100.5" x2="0.5" y2="100.5" style="fill:none;stroke:#999;stroke-miterlimit:10"/><line x1="260.57" y1="80.5" x2="0.5" y2="80.5" style="fill:none;stroke:#999;stroke-miterlimit:10"/><line x1="260.57" y1="140.5" x2="0.5" y2="140.5" style="fill:none;stroke:#999;stroke-miterlimit:10"/><line x1="260.57" y1="120.5" x2="0.5" y2="120.5" style="fill:none;stroke:#999;stroke-miterlimit:10"/><line x1="260.57" y1="160.5" x2="0.5" y2="160.5" style="fill:none;stroke:#999;stroke-miterlimit:10"/></g></g></svg>