<svg xmlns="http://www.w3.org/2000/svg" viewBox="0 0 334 377"><title>sketch-cicle</title><g id="Layer_2" data-name="Layer 2"><g id="Layer_1-2" data-name="Layer 1"><line x1="132" y1="81" x2="132" y2="105.88" style="fill:none;stroke:#000;stroke-linecap:round;stroke-miterlimit:10;stroke-width:2px"/><polygon points="132 120 123.87 100.1 132 104.82 140.13 100.1 132 120"/><rect x="86.57" y="138.55" width="92.63" height="90.13" transform="translate(168.76 -40.19) rotate(45)" style="fill:#3c9;stroke:#000;stroke-linecap:round;stroke-miterlimit:10;stroke-width:2px"/><polyline points="198 185 273 185 273 218.88" style="fill:none;stroke:#000;stroke-linecap:round;stroke-miterlimit:10;stroke-width:2px"/><polygon points="273 233 264.87 213.1 273 217.82 281.13 213.1 273 233"/><rect x="226" y="233" width="93.27" height="38" style="fill:#fef445;stroke:#000;stroke-linecap:round;stroke-miterlimit:10;stroke-width:2px"/><path d="M110.41,171.92l0,.36a3.31,3.31,0,0,1-.87,2.44,3.05,3.05,0,0,0-1,1.92,1.16,1.16,0,0,0,1.33,1.2,2.67,2.67,0,0,0,1.43-.43l.32.88a3.86,3.86,0,0,1-2,.56,2.07,2.07,0,0,1-2.34-2.06,3.75,3.75,0,0,1,1.22-2.44,2.74,2.74,0,0,0,.78-2.07v-.36Zm.3-1.95a.81.81,0,0,1-.82.87.88.88,0,0,1,0-1.76A.81.81,0,0,1,110.71,170Z"/><path d="M113.16,174.44a4.14,4.14,0,0,0,2.17.61c1.25,0,2-.66,2-1.61s-.51-1.39-1.78-1.86C114,171,113,170.21,113,168.89s1.21-2.56,3-2.56a4.18,4.18,0,0,1,2.07.46l-.33,1a3.55,3.55,0,0,0-1.78-.45c-1.29,0-1.78.77-1.78,1.42,0,.88.57,1.32,1.88,1.82,1.59.62,2.39,1.39,2.39,2.77s-1.06,2.74-3.29,2.74a4.93,4.93,0,0,1-2.41-.62Z"/><path d="M121,172.76a2.16,2.16,0,0,0,2.32,2.35,4.38,4.38,0,0,0,1.88-.35l.22.88a5.42,5.42,0,0,1-2.27.44,3.16,3.16,0,0,1-3.33-3.44c0-2,1.2-3.64,3.18-3.64,2.23,0,2.8,1.93,2.8,3.18a3,3,0,0,1,0,.58Zm3.61-.89a1.75,1.75,0,0,0-1.71-2,2,2,0,0,0-1.89,2Z"/><path d="M130.07,174.67a3.45,3.45,0,0,0,1.64.48c.88,0,1.3-.43,1.3-1s-.35-.89-1.24-1.23c-1.23-.45-1.81-1.11-1.81-1.92a2.1,2.1,0,0,1,2.34-2,3.1,3.1,0,0,1,1.65.42l-.29.9a2.63,2.63,0,0,0-1.39-.41c-.73,0-1.12.42-1.12.93s.39.81,1.28,1.16c1.16.43,1.78,1,1.78,2,0,1.2-.94,2.05-2.53,2.05a3.86,3.86,0,0,1-1.9-.48Z"/><path d="M137.16,167.24a.74.74,0,0,1-.79.75.72.72,0,0,1-.74-.75.75.75,0,0,1,.77-.77A.74.74,0,0,1,137.16,167.24Zm-1.37,8.68v-6.78H137v6.78Z"/><path d="M144.86,174.93a4,4,0,0,1-1,3.11,3.71,3.71,0,0,1-2.47.81,4.43,4.43,0,0,1-2.26-.56l.31-.95a3.74,3.74,0,0,0,2,.54c1.26,0,2.18-.66,2.18-2.38v-.74h0a2.38,2.38,0,0,1-2.15,1.13,3,3,0,0,1-2.89-3.3c0-2.3,1.5-3.59,3.07-3.59a2.24,2.24,0,0,1,2.11,1.16h0l0-1h1.1c0,.48-.06,1-.06,1.85Zm-1.23-3.11a1.79,1.79,0,0,0-.07-.55,1.77,1.77,0,0,0-1.73-1.32c-1.17,0-2,1-2,2.57,0,1.33.68,2.44,2,2.44a1.78,1.78,0,0,0,1.71-1.27,2.1,2.1,0,0,0,.1-.65Z"/><path d="M152.56,174.06c0,.71,0,1.33.06,1.86h-1.1l-.07-1.11h0a2.51,2.51,0,0,1-2.24,1.27c-1.06,0-2.34-.61-2.34-3v-4h1.24v3.74c0,1.29.4,2.17,1.51,2.17a1.75,1.75,0,0,0,1.62-1.13,1.51,1.51,0,0,0,.12-.63v-4.15h1.23Z"/><path d="M155.29,172.76a2.17,2.17,0,0,0,2.32,2.35,4.35,4.35,0,0,0,1.88-.35l.22.88a5.42,5.42,0,0,1-2.27.44,3.16,3.16,0,0,1-3.33-3.44c0-2,1.21-3.64,3.18-3.64,2.23,0,2.8,1.93,2.8,3.18a3,3,0,0,1,0,.58Zm3.61-.89a1.75,1.75,0,0,0-1.71-2,2,2,0,0,0-1.89,2Z"/><path d="M99.37,189.55a2.17,2.17,0,0,0,2.33,2.36,4.45,4.45,0,0,0,1.87-.35l.23.88a5.46,5.46,0,0,1-2.27.44,3.16,3.16,0,0,1-3.33-3.44c0-2,1.2-3.64,3.18-3.64,2.22,0,2.8,1.93,2.8,3.18a3.75,3.75,0,0,1,0,.57Zm3.62-.88a1.76,1.76,0,0,0-1.71-2,2,2,0,0,0-1.89,2Z"/><path d="M104,194.71a1.94,1.94,0,0,0,1.35-.53c.33-.38.47-.91.47-2.54v-5.7h1.24v6.18a3.69,3.69,0,0,1-.82,2.79,3.14,3.14,0,0,1-2.1.77Zm3.2-10.67a.74.74,0,0,1-.79.75.73.73,0,0,1-.74-.75.75.75,0,0,1,.77-.77A.74.74,0,0,1,107.23,184Z"/><path d="M109.79,189.55a2.17,2.17,0,0,0,2.32,2.36,4.5,4.5,0,0,0,1.88-.35l.22.88a5.41,5.41,0,0,1-2.26.44,3.17,3.17,0,0,1-3.34-3.44c0-2,1.21-3.64,3.18-3.64,2.23,0,2.8,1.93,2.8,3.18a2.78,2.78,0,0,1,0,.57Zm3.61-.88a1.75,1.75,0,0,0-1.71-2,2,2,0,0,0-1.89,2Z"/><path d="M121,192.48a4.65,4.65,0,0,1-2,.4,3.22,3.22,0,0,1-3.37-3.46,3.45,3.45,0,0,1,3.64-3.62,3.78,3.78,0,0,1,1.71.37l-.28.93a3.11,3.11,0,0,0-1.43-.32,2.56,2.56,0,0,0,0,5.1,3.58,3.58,0,0,0,1.51-.32Z"/><path d="M128.06,190.86c0,.71,0,1.33.06,1.86H127l-.07-1.11h0a2.54,2.54,0,0,1-2.24,1.27c-1.07,0-2.34-.61-2.34-3v-4h1.23v3.74c0,1.29.4,2.17,1.51,2.17a1.78,1.78,0,0,0,1.63-1.13,1.69,1.69,0,0,0,.11-.63v-4.15h1.23Z"/><path d="M131.59,184.32v1.62h1.76v.94h-1.76v3.66c0,.84.23,1.31.92,1.31a2.59,2.59,0,0,0,.72-.08l.05.94a3.44,3.44,0,0,1-1.09.17,1.75,1.75,0,0,1-1.33-.52,2.63,2.63,0,0,1-.48-1.78v-3.7h-1v-.94h1v-1.26Z"/><path d="M139.5,191.1a11.35,11.35,0,0,0,.1,1.62h-1.11l-.1-.85h0a2.54,2.54,0,0,1-2.07,1,1.94,1.94,0,0,1-2.08-1.95c0-1.64,1.46-2.54,4.08-2.52v-.14a1.39,1.39,0,0,0-1.54-1.56,3.2,3.2,0,0,0-1.78.51l-.28-.83a4.4,4.4,0,0,1,2.24-.59c2.07,0,2.58,1.42,2.58,2.76Zm-1.19-1.84c-1.35,0-2.87.21-2.87,1.53a1.07,1.07,0,0,0,1.14,1.17,1.71,1.71,0,0,0,1.67-1.13,1.48,1.48,0,0,0,.06-.39Z"/><path d="M141.48,187.78c0-.72,0-1.28,0-1.84h1.09l.07,1.12h0a2.5,2.5,0,0,1,2.24-1.26c.94,0,2.39.56,2.39,2.89v4H146v-3.91c0-1.09-.4-2-1.57-2a1.76,1.76,0,0,0-1.65,1.26,1.64,1.64,0,0,0-.08.57v4.08h-1.24Z"/><path d="M155.09,182.78V191c0,.6,0,1.29.06,1.75h-1.09l-.06-1.18h0a2.45,2.45,0,0,1-2.28,1.34c-1.64,0-2.92-1.39-2.92-3.45,0-2.26,1.4-3.63,3-3.63a2.29,2.29,0,0,1,2,1h0v-4Zm-1.21,5.92a2.37,2.37,0,0,0-.06-.52,1.81,1.81,0,0,0-1.78-1.41c-1.27,0-2,1.12-2,2.6s.69,2.51,2,2.51a1.86,1.86,0,0,0,1.81-1.47,2.26,2.26,0,0,0,.06-.53Z"/><path d="M163.29,189.27a3.33,3.33,0,0,1-3.38,3.61,3.24,3.24,0,0,1-3.25-3.49A3.31,3.31,0,0,1,160,185.8,3.21,3.21,0,0,1,163.29,189.27Zm-5.37.07c0,1.49.84,2.61,2,2.61s2.06-1.11,2.06-2.63c0-1.15-.57-2.59-2-2.59S157.92,188.07,157.92,189.34Z"/><path d="M165.79,190l0-.36a3.26,3.26,0,0,1,.87-2.43,3.05,3.05,0,0,0,1-1.91c0-.72-.45-1.2-1.33-1.21a2.54,2.54,0,0,0-1.42.43l-.33-.88a3.74,3.74,0,0,1,2-.56,2.07,2.07,0,0,1,2.34,2.06,3.81,3.81,0,0,1-1.2,2.44,2.75,2.75,0,0,0-.8,2.07l0,.35Zm-.3,2a.83.83,0,0,1,.83-.89.88.88,0,1,1-.83.89Z"/><path d="M214.2,167.2h2.14v-1.78l1.43-.4v2.18h4.8v1.2h-4.8v4.25a2.66,2.66,0,0,0,.63,1.95,2.49,2.49,0,0,0,1.82.63,3.12,3.12,0,0,0,1.41-.31,7.72,7.72,0,0,0,1.09-.67l.46,1.07a5.36,5.36,0,0,1-1.5.81,5.47,5.47,0,0,1-1.79.3,4.35,4.35,0,0,1-1.36-.21,3,3,0,0,1-1.9-1.74,4.13,4.13,0,0,1-.29-1.61V168.4H214.2Z"/><path d="M225.63,176.2V175h2.43V168.4h-2.43v-1.2H229l.29,1.17h.09a6.65,6.65,0,0,1,1.36-1,3.92,3.92,0,0,1,1.8-.39,1.84,1.84,0,0,1,1,.23,1.59,1.59,0,0,1,.58.69,3.55,3.55,0,0,1,.28,1.08,12.69,12.69,0,0,1,.07,1.45l-1.26,0a4.68,4.68,0,0,0-.22-1.68.83.83,0,0,0-.82-.53,2.93,2.93,0,0,0-1,.16,3.55,3.55,0,0,0-.78.39,4.93,4.93,0,0,0-.57.47,2.5,2.5,0,0,0-.34.4V175h3.45v1.21Z"/><path d="M241.76,167.2h2.57v6.14a13.21,13.21,0,0,0,.11,1.69h1.21v1.17h-2.41l-.06-1.53h-.07a3.83,3.83,0,0,1-1.24,1.26,3.47,3.47,0,0,1-1.87.48,4.39,4.39,0,0,1-1.4-.19,1.94,1.94,0,0,1-1-.65,3,3,0,0,1-.56-1.25,9,9,0,0,1-.18-2v-4h-1.21v-1.2h2.63v4.88a13,13,0,0,0,.06,1.32,3.24,3.24,0,0,0,.26,1,1.37,1.37,0,0,0,.58.61,2.16,2.16,0,0,0,1,.21,2.4,2.4,0,0,0,1.62-.61,3.93,3.93,0,0,0,1-1.53V168.4h-1.15Z"/><path d="M255.57,175.06a4.05,4.05,0,0,1-.77.54,5.29,5.29,0,0,1-1,.44,6.43,6.43,0,0,1-1.09.27,6.27,6.27,0,0,1-1.14.1,5.13,5.13,0,0,1-1.91-.33,3.7,3.7,0,0,1-1.39-1,4.19,4.19,0,0,1-.84-1.49,5.86,5.86,0,0,1-.29-1.94,6,6,0,0,1,.31-2,3.9,3.9,0,0,1,.91-1.47,4,4,0,0,1,1.44-.91,5.43,5.43,0,0,1,1.89-.32,5.89,5.89,0,0,1,1.5.2,2.91,2.91,0,0,1,1.3.75,3.46,3.46,0,0,1,.87,1.51,6.87,6.87,0,0,1,.22,2.49h-7a3.13,3.13,0,0,0,.87,2.42,3.28,3.28,0,0,0,2.33.8,4.49,4.49,0,0,0,1-.11,7.89,7.89,0,0,0,.9-.28,5,5,0,0,0,.77-.36A3.11,3.11,0,0,0,255,174Zm-3.79-6.89a4.6,4.6,0,0,0-1.13.13,2.47,2.47,0,0,0-.93.42,2.25,2.25,0,0,0-.66.77,2.88,2.88,0,0,0-.33,1.18h5.58a2.74,2.74,0,0,0-.77-1.84A2.4,2.4,0,0,0,251.78,168.17Z"/><path d="M6.72,176.11V174.9H8.87v-6.58H6.72v-1.21H8.87v-.5a3.05,3.05,0,0,1,.88-2.45,3.72,3.72,0,0,1,2.52-.76,8.31,8.31,0,0,1,1.06.07,5.06,5.06,0,0,1,1,.29L14,164.93a3.56,3.56,0,0,0-.89-.26,5.79,5.79,0,0,0-.79-.06,1.87,1.87,0,0,0-1.61.58,3.28,3.28,0,0,0-.43,1.92H14v1.21H10.29v6.58H14v1.21Z"/><path d="M17.88,167.81a5.7,5.7,0,0,1,1.75-.64,9,9,0,0,1,1.91-.2,3.43,3.43,0,0,1,1.5.28A2.57,2.57,0,0,1,24,168a2.75,2.75,0,0,1,.45,1.05,5.79,5.79,0,0,1,.11,1.17c0,.46,0,.95,0,1.46s0,1,0,1.55a13.33,13.33,0,0,0,.1,1.71h1.21v1.17H23.37l-.16-1.35h-.09a3.65,3.65,0,0,1-.32.41,3.18,3.18,0,0,1-.57.5,3.83,3.83,0,0,1-.86.42,3.59,3.59,0,0,1-1.19.18,3.09,3.09,0,0,1-2.11-.68,2.37,2.37,0,0,1-.78-1.87,2.61,2.61,0,0,1,.41-1.53,2.54,2.54,0,0,1,1.16-.94,5.39,5.39,0,0,1,1.83-.38,12.21,12.21,0,0,1,2.41.15,6.57,6.57,0,0,0,0-1.38,1.82,1.82,0,0,0-.29-.87,1.19,1.19,0,0,0-.63-.46,3.21,3.21,0,0,0-1-.14,5.35,5.35,0,0,0-1.56.23c-.49.15-.93.3-1.32.46Zm2.67,7.26a2.6,2.6,0,0,0,.93-.17,2.64,2.64,0,0,0,.76-.41,2.8,2.8,0,0,0,.54-.55,3,3,0,0,0,.32-.56v-1.27a11,11,0,0,0-1.72-.16,5,5,0,0,0-1.37.17,2,2,0,0,0-.9.53,1.37,1.37,0,0,0-.33.94,1.5,1.5,0,0,0,.41,1A1.79,1.79,0,0,0,20.55,175.07Z"/><path d="M28.88,163.51h3v9.58a2.43,2.43,0,0,0,.37,1.54,1.27,1.27,0,0,0,1.08.45,2.65,2.65,0,0,0,1-.18,3.92,3.92,0,0,0,1-.61l.65,1a3.59,3.59,0,0,1-.63.45,4.1,4.1,0,0,1-.7.34,5,5,0,0,1-.73.2,3.23,3.23,0,0,1-.66.07,3.7,3.7,0,0,1-1.2-.17,1.89,1.89,0,0,1-.87-.55,2.35,2.35,0,0,1-.53-1,5.26,5.26,0,0,1-.19-1.54v-8.37H28.88Z"/><path d="M45.4,173.68a1,1,0,0,0-.44-.89,3.51,3.51,0,0,0-1.12-.5c-.44-.13-.92-.25-1.44-.35A8.78,8.78,0,0,1,41,171.5a3.2,3.2,0,0,1-1.11-.73,1.74,1.74,0,0,1-.45-1.28,2.17,2.17,0,0,1,.3-1.17,2.48,2.48,0,0,1,.78-.8,3.55,3.55,0,0,1,1.14-.47A5.94,5.94,0,0,1,43,166.9a6.68,6.68,0,0,1,2.17.31,7,7,0,0,1,1.44.66L46,169a13.9,13.9,0,0,0-1.28-.62,4.36,4.36,0,0,0-1.73-.3,4,4,0,0,0-.78.08,2.75,2.75,0,0,0-.7.25,1.41,1.41,0,0,0-.51.42,1.1,1.1,0,0,0-.19.64.79.79,0,0,0,.45.72,4.38,4.38,0,0,0,1.12.42c.44.12.92.22,1.44.33a7.21,7.21,0,0,1,1.45.44,3.29,3.29,0,0,1,1.11.77,1.84,1.84,0,0,1,.45,1.31,2.57,2.57,0,0,1-1,2.06,4.57,4.57,0,0,1-3,.81,6.62,6.62,0,0,1-1.17-.11,7.18,7.18,0,0,1-2-.69,4.44,4.44,0,0,1-.68-.46l.72-1.17a3.23,3.23,0,0,0,.57.44,5.84,5.84,0,0,0,.79.4,5.31,5.31,0,0,0,.93.29,4.77,4.77,0,0,0,1,.11,5.14,5.14,0,0,0,.91-.08,2.92,2.92,0,0,0,.74-.25,1.53,1.53,0,0,0,.52-.45A1.25,1.25,0,0,0,45.4,173.68Z"/><path d="M57.86,175a5.1,5.1,0,0,1-.76.54,5.7,5.7,0,0,1-1,.43,7.56,7.56,0,0,1-1.09.28,7.21,7.21,0,0,1-1.14.1A4.93,4.93,0,0,1,52,176a3.67,3.67,0,0,1-1.38-1,4,4,0,0,1-.85-1.49,6.13,6.13,0,0,1-.29-1.94,6,6,0,0,1,.32-2,3.86,3.86,0,0,1,.91-1.47,3.81,3.81,0,0,1,1.44-.91A5.35,5.35,0,0,1,54,166.9a5.8,5.8,0,0,1,1.49.19,3,3,0,0,1,1.31.75,3.74,3.74,0,0,1,.87,1.51,7.15,7.15,0,0,1,.21,2.49H51a3.16,3.16,0,0,0,.87,2.43,3.3,3.3,0,0,0,2.32.8,3.89,3.89,0,0,0,1-.12,8.06,8.06,0,0,0,.91-.28,4.9,4.9,0,0,0,.76-.36,3.11,3.11,0,0,0,.51-.36Zm-3.79-6.9a4.52,4.52,0,0,0-1.12.13,2.47,2.47,0,0,0-.93.42,2.43,2.43,0,0,0-.67.78,3.17,3.17,0,0,0-.33,1.17H56.6a2.76,2.76,0,0,0-.76-1.84A2.42,2.42,0,0,0,54.07,168.08Z"/><polyline points="124 362.88 124 324.72 1 324.72 1 237.8 1 183 68 183" style="fill:none;stroke:#000;stroke-linecap:round;stroke-miterlimit:10;stroke-width:2px"/><polygon points="124 377 132.13 357.1 124 361.82 115.87 357.1 124 377"/><rect x="87" y="40" width="90" height="41" style="fill:#fef445;stroke:#000;stroke-linecap:round;stroke-miterlimit:10;stroke-width:2px"/><line x1="134" y1="1" x2="134" y2="25.88" style="fill:none;stroke:#000;stroke-linecap:round;stroke-miterlimit:10;stroke-width:2px"/><polygon points="134 40 125.87 20.1 134 24.82 142.13 20.1 134 40"/><path d="M116.81,62a.85.85,0,0,0-.38-.74,2.79,2.79,0,0,0-.92-.42c-.37-.11-.77-.21-1.21-.3a7,7,0,0,1-1.2-.36,2.76,2.76,0,0,1-.93-.6,1.49,1.49,0,0,1-.37-1.08,1.77,1.77,0,0,1,.25-1,2.08,2.08,0,0,1,.65-.67,3.2,3.2,0,0,1,.94-.39,5.22,5.22,0,0,1,1.13-.13,5.43,5.43,0,0,1,1.81.27,5.72,5.72,0,0,1,1.2.54l-.48,1c-.32-.18-.68-.35-1.06-.52a3.81,3.81,0,0,0-1.45-.25,3.59,3.59,0,0,0-.65.07,2.47,2.47,0,0,0-.58.2,1.06,1.06,0,0,0-.42.36.9.9,0,0,0-.16.53.66.66,0,0,0,.38.6,3.76,3.76,0,0,0,.92.35c.37.1.77.19,1.21.27a6.23,6.23,0,0,1,1.2.37,2.71,2.71,0,0,1,.93.64,1.56,1.56,0,0,1,.37,1.1,2.13,2.13,0,0,1-.81,1.71,3.82,3.82,0,0,1-2.46.67,5.23,5.23,0,0,1-1-.09,5.91,5.91,0,0,1-.9-.24,6.14,6.14,0,0,1-.77-.33,3.51,3.51,0,0,1-.57-.39l.6-1a3,3,0,0,0,.48.37,5.08,5.08,0,0,0,.66.33,4.34,4.34,0,0,0,.77.24,3.84,3.84,0,0,0,.83.09,4.38,4.38,0,0,0,.75-.06,2.5,2.5,0,0,0,.62-.21,1.14,1.14,0,0,0,.43-.38A.93.93,0,0,0,116.81,62Z"/><path d="M127.19,63a3.61,3.61,0,0,1-.64.45,4.51,4.51,0,0,1-.8.36,5.27,5.27,0,0,1-.91.23,5,5,0,0,1-1,.08,4.34,4.34,0,0,1-1.59-.27,3.09,3.09,0,0,1-1.16-.8,3.42,3.42,0,0,1-.7-1.24,5.57,5.57,0,0,1,0-3.3,3.33,3.33,0,0,1,.76-1.23,3.22,3.22,0,0,1,1.2-.75A4.35,4.35,0,0,1,124,56.3a4.83,4.83,0,0,1,1.25.17,2.54,2.54,0,0,1,1.09.62,3.07,3.07,0,0,1,.72,1.26,5.89,5.89,0,0,1,.18,2.08h-5.79a2.6,2.6,0,0,0,.73,2,2.77,2.77,0,0,0,1.94.66,3.63,3.63,0,0,0,.8-.09q.39-.1.75-.24a4.24,4.24,0,0,0,.64-.3,2.91,2.91,0,0,0,.42-.3ZM124,57.29a4,4,0,0,0-.93.11,2.14,2.14,0,0,0-.78.35,2,2,0,0,0-.56.65,2.64,2.64,0,0,0-.27,1h4.65a2.3,2.3,0,0,0-.64-1.54A2,2,0,0,0,124,57.29Z"/><path d="M128.72,56.48h1.78V55l1.19-.33v1.81h4v1h-4V61a2.17,2.17,0,0,0,.53,1.62,2.06,2.06,0,0,0,1.52.52,2.55,2.55,0,0,0,1.17-.25,6.56,6.56,0,0,0,.9-.56l.39.89a4.14,4.14,0,0,1-1.25.67,4.49,4.49,0,0,1-1.49.26,3.88,3.88,0,0,1-1.14-.17,2.7,2.7,0,0,1-.93-.54,2.51,2.51,0,0,1-.65-.92,3.38,3.38,0,0,1-.24-1.34V57.49h-1.78Z"/><path d="M142.68,56.48h2.15V61.6a10.67,10.67,0,0,0,.09,1.41h1v1h-2l0-1.27h-.06a3.23,3.23,0,0,1-1,1,2.87,2.87,0,0,1-1.56.4,4,4,0,0,1-1.17-.15,1.68,1.68,0,0,1-.8-.55,2.57,2.57,0,0,1-.47-1,7.48,7.48,0,0,1-.15-1.63v-3.3h-1v-1h2.19v4.07a9.15,9.15,0,0,0,.05,1.1,2.4,2.4,0,0,0,.22.83,1.13,1.13,0,0,0,.48.51,1.86,1.86,0,0,0,.85.17,2,2,0,0,0,1.35-.51,3.31,3.31,0,0,0,.87-1.28V57.49h-1Z"/><path d="M147.69,59.11v-.35l0-.45c0-.16,0-.31,0-.46a3.42,3.42,0,0,0-.05-.39h-1v-1h2l.15,1.05h.08a3.32,3.32,0,0,1,1-.87,3,3,0,0,1,1.53-.36,3.1,3.1,0,0,1,2.41.89,4.21,4.21,0,0,1,.81,2.89,5.11,5.11,0,0,1-.27,1.71,3.69,3.69,0,0,1-.79,1.28,3.47,3.47,0,0,1-1.23.81,4.28,4.28,0,0,1-1.59.28,5.06,5.06,0,0,1-.57,0,2.75,2.75,0,0,1-.44-.06,2.6,2.6,0,0,1-.4-.1l-.42-.15V67h-1.16Zm3.45-1.7a2.22,2.22,0,0,0-.85.17,2.49,2.49,0,0,0-.7.43,2.35,2.35,0,0,0-.5.6,1.76,1.76,0,0,0-.24.66v3.41a2.53,2.53,0,0,0,.74.35,3.6,3.6,0,0,0,1.09.13,2.46,2.46,0,0,0,1.92-.79,4,4,0,0,0,.21-4.26A1.92,1.92,0,0,0,151.14,57.41Z"/><path d="M260.34,246h2.44V254c0,.09,0,.2,0,.34s0,.27,0,.42l.06.45c0,.14,0,.27.06.38h1v1h-2l-.15-1.15h-.06a2.63,2.63,0,0,1-1,.95,2.84,2.84,0,0,1-1.5.38,3,3,0,0,1-2.49-.95,4.49,4.49,0,0,1-.8-3,4.76,4.76,0,0,1,.26-1.67,3.2,3.2,0,0,1,.78-1.22,3.33,3.33,0,0,1,1.2-.74,4.57,4.57,0,0,1,1.57-.26l.56,0,.46,0a2.23,2.23,0,0,1,.39.09l.42.11V247h-1.26Zm-.9,9.68a2.1,2.1,0,0,0,1.44-.47,2.56,2.56,0,0,0,.72-1.42v-3.48a2.36,2.36,0,0,0-.74-.33,4.57,4.57,0,0,0-1.09-.11,2.54,2.54,0,0,0-1.88.7,3,3,0,0,0-.69,2.2,6,6,0,0,0,.11,1.15,2.63,2.63,0,0,0,.38.92,1.78,1.78,0,0,0,.69.61A2.27,2.27,0,0,0,259.44,255.69Z"/><path d="M265.11,256.51v-1h2V250h-2v-1h2.8l.24,1h.08a5.18,5.18,0,0,1,1.14-.8,3.19,3.19,0,0,1,1.5-.33,1.47,1.47,0,0,1,.81.2,1.23,1.23,0,0,1,.48.57,3.09,3.09,0,0,1,.24.91,10.68,10.68,0,0,1,.06,1.2l-1,0a4,4,0,0,0-.19-1.4.68.68,0,0,0-.68-.45,2.47,2.47,0,0,0-.84.14,2.91,2.91,0,0,0-.66.33,3.89,3.89,0,0,0-.47.39,2.24,2.24,0,0,0-.28.33v4.41h2.88v1Z"/><path d="M274.73,249.6a4.79,4.79,0,0,1,1.46-.54,8,8,0,0,1,1.59-.17,2.81,2.81,0,0,1,1.25.24,2,2,0,0,1,.77.63,2.13,2.13,0,0,1,.37.87,4.59,4.59,0,0,1,.1,1c0,.38,0,.78,0,1.21s0,.86-.05,1.29a10.86,10.86,0,0,0,.09,1.43h1v1h-2l-.14-1.12h-.07a3.89,3.89,0,0,1-.27.34,2.57,2.57,0,0,1-.48.42,3.13,3.13,0,0,1-.71.35,3,3,0,0,1-1,.15,2.55,2.55,0,0,1-1.76-.57,2,2,0,0,1-.65-1.56,2.24,2.24,0,0,1,.34-1.28,2.11,2.11,0,0,1,1-.78,4.46,4.46,0,0,1,1.53-.31,10.22,10.22,0,0,1,2,.12,5.76,5.76,0,0,0,0-1.15,1.74,1.74,0,0,0-.24-.73,1,1,0,0,0-.53-.38,2.85,2.85,0,0,0-.84-.11,4.24,4.24,0,0,0-1.29.19,11.6,11.6,0,0,0-1.1.38Zm2.22,6a2.2,2.2,0,0,0,.78-.13,2.28,2.28,0,0,0,1.35-1.28v-1a8.45,8.45,0,0,0-1.44-.13,4.23,4.23,0,0,0-1.14.14,1.63,1.63,0,0,0-.75.44,1.12,1.12,0,0,0-.27.78,1.29,1.29,0,0,0,.34.87A1.5,1.5,0,0,0,277,255.64Z"/><path d="M287.2,250.66l1.5,4.17h.1l1.07-5.82H291l-1.47,7.5h-1.33l-1.44-4.14h-.05l-1.5,4.14h-1.33l-1.58-7.5h1.16l1.21,5.85h.09l1.46-4.2Z"/><polyline points="273 271 273 304 333 304 333 92 134 92" style="fill:none;stroke:#000;stroke-linecap:round;stroke-miterlimit:10;stroke-width:2px"/></g></g></svg>